<?xml version="1.0" encoding="UTF-8"?>
<svg version="1.1" xmlns="http://www.w3.org/2000/svg" width="128" height="128">
<path d="M0 0 C1.04321411 -0.00281982 2.08642822 -0.00563965 3.16125488 -0.00854492 C4.31041382 -0.00652069 5.45957275 -0.00449646 6.64355469 -0.00241089 C7.8500769 -0.00416321 9.05659912 -0.00591553 10.29968262 -0.00772095 C13.61366425 -0.01137534 16.9275837 -0.01050844 20.24156189 -0.00734186 C23.70531296 -0.00481486 27.16906133 -0.00715675 30.6328125 -0.00872803 C36.45020018 -0.01054872 42.26757518 -0.00814603 48.08496094 -0.00338745 C54.81621441 0.00205498 61.5474376 0.00029225 68.27869034 -0.00521386 C74.05196518 -0.00974782 79.82523088 -0.01039414 85.59850693 -0.00777519 C89.04927823 -0.00621398 92.50003527 -0.00601439 95.95080566 -0.00931168 C99.79631737 -0.0127293 103.64179499 -0.007996 107.48730469 -0.00241089 C108.63646362 -0.00443512 109.78562256 -0.00645935 110.96960449 -0.00854492 C112.0128186 -0.0057251 113.05603271 -0.00290527 114.13085938 0 C115.4958255 0.00056554 115.4958255 0.00056554 116.8883667 0.0011425 C119.06542969 0.12698364 119.06542969 0.12698364 121.06542969 1.12698364 C121.21103164 4.85573752 121.29960011 8.58375798 121.37792969 12.31448364 C121.44077148 13.89713013 121.44077148 13.89713013 121.50488281 15.51174927 C121.62738551 23.27842012 121.62738551 23.27842012 118.92089844 27.36526489 C115.64889534 29.38396995 113.84190569 29.56610876 110.06542969 29.12698364 C110.08637695 29.75564331 110.10732422 30.38430298 110.12890625 31.03201294 C110.71071797 51.16159388 108.65824639 65.33197875 95.06542969 81.12698364 C83.08511568 91.37918104 69.97642258 96.71679054 54.20605469 96.37307739 C44.03735643 95.57627641 35.63619546 92.58110732 27.06542969 87.12698364 C26.34613281 86.68612427 25.62683594 86.24526489 24.88574219 85.79104614 C14.69188849 78.92903568 7.26324682 66.34004405 4.44482422 54.49295044 C3.68132928 49.73167026 3.86219962 44.93512423 3.94042969 40.12698364 C3.94945312 39.06608521 3.95847656 38.00518677 3.96777344 36.91213989 C3.99115445 34.31684726 4.02392413 31.72203899 4.06542969 29.12698364 C3.17855469 29.23010864 2.29167969 29.33323364 1.37792969 29.43948364 C-1.93457031 29.12698364 -1.93457031 29.12698364 -4.79003906 27.36526489 C-8.02287119 22.48362949 -7.4739141 18.02745708 -7.24707031 12.31448364 C-7.22451172 11.24005005 -7.20195313 10.16561646 -7.17871094 9.05862427 C-7.11992629 6.41331515 -7.03780988 3.77086951 -6.93457031 1.12698364 C-4.44559478 -0.11750412 -2.78524223 0.00115399 0 0 Z M-0.93457031 7.12698364 C-0.93457031 11.74698364 -0.93457031 16.36698364 -0.93457031 21.12698364 C0.65726868 22.71882263 2.29988468 22.25297489 4.50683594 22.25396729 C5.465979 22.25678711 6.42512207 22.25960693 7.41333008 22.26251221 C8.47414795 22.26048798 9.53496582 22.25846375 10.62792969 22.25637817 C12.29359985 22.25900665 12.29359985 22.25900665 13.99291992 22.26168823 C17.68377215 22.26610937 21.37457692 22.26316783 25.06542969 22.25979614 C27.61751312 22.26046911 30.16959648 22.26143907 32.72167969 22.26269531 C38.07845731 22.26417264 43.43521774 22.2621112 48.79199219 22.25735474 C54.99326684 22.25191215 61.19450862 22.25367482 67.39578247 22.25918114 C73.35077184 22.26425801 79.30575096 22.26373071 85.26074219 22.26079941 C87.79980473 22.26012988 90.33886811 22.26095946 92.87792969 22.26327896 C96.41961933 22.26580394 99.96124485 22.26196706 103.50292969 22.25637817 C104.56374756 22.2584024 105.62456543 22.26042664 106.7175293 22.26251221 C108.1562439 22.25828247 108.1562439 22.25828247 109.62402344 22.25396729 C110.46247803 22.25359026 111.30093262 22.25321323 112.16479492 22.25282478 C114.07613462 22.33589426 114.07613462 22.33589426 115.06542969 21.12698364 C115.06542969 16.50698364 115.06542969 11.88698364 115.06542969 7.12698364 C76.78542969 7.12698364 38.50542969 7.12698364 -0.93457031 7.12698364 Z M10.06542969 29.12698364 C10.06542969 45.76746457 10.27701724 57.77914849 20.06542969 71.12698364 C20.76667969 72.09635864 21.46792969 73.06573364 22.19042969 74.06448364 C29.85584241 82.99574433 41.52582258 88.46926138 53.15917969 89.36526489 C65.79598998 89.64060824 76.03881003 86.91187939 86.06542969 79.12698364 C87.11730469 78.36385864 88.16917969 77.60073364 89.25292969 76.81448364 C98.23559142 68.23105133 102.53544034 57.23939931 104.06542969 45.12698364 C104.06542969 39.84698364 104.06542969 34.56698364 104.06542969 29.12698364 C73.04542969 29.12698364 42.02542969 29.12698364 10.06542969 29.12698364 Z " fill="#000000" transform="translate(6.9345703125,15.873016357421875)"/>
<path d="M0 0 C6.01293248 3.65391419 11.1322348 9.00847167 13.19921875 15.82421875 C15.05909788 24.31806165 14.31749581 30.60340857 9.8125 38.0625 C5.48097598 44.08668268 -0.22882543 47.62915501 -7.50390625 49.08984375 C-15.30249697 49.93333459 -22.13466769 47.75414304 -28.5625 43.3125 C-34.17519116 37.58408325 -37.03713511 31.32431454 -37.5625 23.3125 C-37.00591339 15.8542394 -34.58732662 9.88708884 -29.5625 4.3125 C-21.3729505 -2.17411861 -9.79214333 -4.65220603 0 0 Z M-25.9375 10.6875 C-29.5154649 15.34468801 -31.0565809 19.1804451 -30.875 25.1953125 C-30.10160583 30.43505803 -27.57411739 34.70778675 -23.625 38.1875 C-18.41286809 41.80408132 -13.9561029 43.25620523 -7.5625 42.3125 C-0.71713251 40.08965004 3.28760873 36.20277944 6.75 29.9375 C8.41116143 23.59488361 7.858093 18.79122126 4.703125 13.13671875 C1.37901295 8.34548317 -2.85505912 5.6204552 -8.5625 4.3125 C-15.44969113 3.56389227 -21.3172192 5.5150393 -25.9375 10.6875 Z " fill="#000000" transform="translate(75.5625,51.6875)"/>
<path d="M0 0 C4.40608743 2.16298837 7.1987497 4.39680479 9 9 C9.68829606 14.0729969 9.59408188 17.83305346 7.25 22.4375 C4.10461941 26.01973901 2.37788434 27.66202837 -2.3125 28.8125 C-6.50342621 29.02559794 -9.13514425 28.64614226 -13 27 C-16.03604209 24.19087859 -18.77647273 21.03739614 -19.23828125 16.828125 C-19.40568873 11.01291787 -19.06897793 7.50886743 -15 3 C-10.63453818 -0.85187808 -5.54054055 -0.79911643 0 0 Z M-11 9 C-12.73318664 11.36343632 -13.01080944 12.56762249 -12.9375 15.5 C-11.64802215 18.93860759 -10.16374258 20.17205985 -7 22 C-3.02868124 22.08104732 -1.52244166 21.4688579 1.4375 18.8125 C3.26371208 16.08074223 3.26371208 16.08074223 2.9375 12.875 C1.98057694 9.94043594 1.52652208 8.7144257 -1 7 C-5.31804486 5.40914137 -7.42967964 6.2016408 -11 9 Z " fill="#000000" transform="translate(69,61)"/>
<path d="M0 0 C2 0.25 2 0.25 4 1 C4.33 1.99 4.66 2.98 5 4 C4.01 4.99 3.02 5.98 2 7 C0.68 6.34 -0.64 5.68 -2 5 C-1.125 1.125 -1.125 1.125 0 0 Z " fill="#000000" transform="translate(96,55)"/>
</svg>
